<?xml version="1.0" encoding="UTF-8"?>
<svg xmlns="http://www.w3.org/2000/svg" xmlns:xlink="http://www.w3.org/1999/xlink" width="12px" height="12px" viewBox="0 0 12 12" version="1.1">
  <title>close@2x</title>
  <g id="最新" stroke="none" stroke-width="1" fill="none" fill-rule="evenodd">
    <g id="home-1备份-3" transform="translate(-301.000000, -288.000000)">
      <g id="close" transform="translate(301.000000, 288.000000)">
        <rect id="矩形" x="0" y="0" width="12" height="12"></rect>
        <g id="编组-3" transform="translate(0.830583, 0.830583)" fill="#FFFFFF" opacity="0.5">
          <path d="M1.28033009,0.219669914 L5.169,4.108 L9.05850468,0.219669914 C9.32477124,-0.0465966484 9.74143492,-0.0708026996 10.0350464,0.147051761 L10.1191649,0.219669914 C10.4120581,0.512563133 10.4120581,0.987436867 10.1191649,1.28033009 L10.1191649,1.28033009 L6.23,5.169 L10.1191649,9.05850468 C10.4120581,9.3513979 10.4120581,9.82627163 10.1191649,10.1191649 C9.82627163,10.4120581 9.3513979,10.4120581 9.05850468,10.1191649 L5.169,6.23 L1.28033009,10.1191649 C1.01406352,10.3854314 0.597399841,10.4096375 0.303788347,10.191783 L0.219669914,10.1191649 C-0.0732233047,9.82627163 -0.0732233047,9.3513979 0.219669914,9.05850468 L0.219669914,9.05850468 L4.108,5.169 L0.219669914,1.28033009 C-0.0732233047,0.987436867 -0.0732233047,0.512563133 0.219669914,0.219669914 C0.512563133,-0.0732233047 0.987436867,-0.0732233047 1.28033009,0.219669914 Z" id="形状结合"></path>
        </g>
      </g>
    </g>
  </g>
</svg>
