<?xml version="1.0" encoding="UTF-8"?>
<svg width="108px" height="108px" viewBox="0 0 108 108" version="1.1" xmlns="http://www.w3.org/2000/svg" xmlns:xlink="http://www.w3.org/1999/xlink">
    <title>ic_launcher_foreground</title>
    <g id="Page-1" stroke="none" stroke-width="1" fill="none" fill-rule="evenodd">
        <g id="adaptive-icon" fill-rule="nonzero">
            <g id="编组" transform="translate(27.116579, 31.662109)">
                <path d="M21.020251,14.4182782 L12.6159934,14.4182782 C5.64837266,14.4182782 0,20.0666509 0,27.0342717 C0,32.0776688 2.95937948,36.4298657 7.23635432,38.4490785 C7.23169982,38.4599177 10.3242209,40.9768915 16.5139175,46 L15.4225293,39.6502651 L21.020251,39.6502651 C27.9878718,39.6502651 33.6362445,34.0018924 33.6362445,27.0342717 C33.6362445,20.0666509 27.9878718,14.4182782 21.020251,14.4182782 Z M12.6159934,18.7952555 L21.020251,18.7952555 C25.570534,18.7952555 29.2592672,22.4839887 29.2592672,27.0342717 C29.2592672,31.5845546 25.570534,35.2732878 21.020251,35.2732878 L12.6159934,35.2732878 C8.06571048,35.2732878 4.37697732,31.5845546 4.37697732,27.0342717 C4.37697732,22.4839887 8.06571048,18.7952555 12.6159934,18.7952555 Z" id="矩形" fill="#467CF4"></path>
                <path d="M39.2823146,0 L28.8548099,0 C20.5007747,0 13.7284912,6.77228355 13.7284912,15.1263187 C13.7284912,23.4803538 20.5007747,30.2526373 28.8548099,30.2526373 L35.0984393,30.2526373 L34.0685622,38.2433262 C41.1597145,32.2487635 44.7052906,29.2514821 44.7052906,29.2514821 C50.3805127,27.0712582 54.4086333,21.5691974 54.4086333,15.1263187 C54.4086333,6.77228355 47.6363498,0 39.2823146,0 Z M28.8548099,4.37697732 L39.2823146,4.37697732 C45.2190119,4.37697732 50.031656,9.18962137 50.031656,15.1263187 C50.031656,21.063016 45.2190119,25.87566 39.2823146,25.87566 L28.8548099,25.87566 C22.9181126,25.87566 18.1054685,21.063016 18.1054685,15.1263187 C18.1054685,9.18962137 22.9181126,4.37697732 28.8548099,4.37697732 Z" id="矩形" fill="#1BC8D2"></path>
                <path d="M33.5837021,25.8750955 C33.6184757,26.2568282 33.6362445,26.6434749 33.6362445,27.0342717 C33.6362445,28.1465943 33.4922931,29.2252953 33.2220035,30.2527614 L28.8548099,30.2526373 C28.7720801,30.2526373 28.6895055,30.2519732 28.6070911,30.2506499 C29.0272373,29.2625303 29.2592672,28.1754977 29.2592672,27.0342717 C29.2592672,26.6409222 29.2317022,26.2540109 29.1783986,25.8753641 Z M18.1284717,14.4174143 C18.1132157,14.6517475 18.1054685,14.8881284 18.1054685,15.1263187 C18.1054685,16.4150438 18.3322536,17.6508005 18.7480921,18.795857 L14.1765837,18.7955581 C13.883868,17.6207939 13.7284912,16.3917014 13.7284912,15.1263187 C13.7284912,14.8888096 13.7339652,14.652579 13.7447938,14.4177463 Z" id="形状结合" fill="#0761C8"></path>
            </g>
        </g>
    </g>
</svg>